# xmcd CD database file
#
# Track frame offsets:
#	150
#	15253
#	27218
#	41584
#	54167
#	68051
#	80451
#	94850
#	110137
#	124093
#	138047
#	151452
#	164058
#	177187
#	190896
#	204006
#	217486
#	231246
#
# Disc length: 3266 seconds
#
# Revision: 0
# Processed by: cddbd v1.5.1PL0 Copyright (c) Steve Scherf et al.
# Submitted via: CDex 1.51
#
DISCID=f20cc012
DTITLE=Charlie Parker - Bird of Paradise
DYEAR=1900
DGENRE=Jazz
TTITLE0=Lover Man
TTITLE1=Si, Si
TTITLE2=Swedish Schnapps
TTITLE3=Back Home Blues
TTITLE4=My Little Suede Shoes
TTITLE5=Tico Tico
TTITLE6=Bird of Paradise
TTITLE7=Embraceable You
TTITLE8=Klaactoveesedstene
TTITLE9=Out of Nowhere
TTITLE10=Scrapple From The Apple
TTITLE11=Don't Blame Me
TTITLE12=Ko Ko
TTITLE13=Moose the Mooche
TTITLE14=Yardbird Suite
TTITLE15=Ornithology
TTITLE16=A Night In Tunisia Max Is Making Wax
TTITLE17=The Gypsy
EXTD=
EXTT0=
EXTT1=
EXTT2=
EXTT3=
EXTT4=
EXTT5=
EXTT6=
EXTT7=
EXTT8=
EXTT9=
EXTT10=
EXTT11=
EXTT12=
EXTT13=
EXTT14=
EXTT15=
EXTT16=
EXTT17=
PLAYORDER=
